<svg width="44" height="44" viewBox="0 0 44 44" fill="none" xmlns="http://www.w3.org/2000/svg">
<path d="M22 0C9.85732 0 0 9.85732 0 22C0 34.1427 9.85732 44 22 44C34.1427 44 44 34.1427 44 22C44 9.85732 34.1427 0 22 0ZM22 1.84481C33.1239 1.84481 42.1552 10.8761 42.1552 22C42.1552 33.1239 33.1239 42.1552 22 42.1552C10.8761 42.1552 1.84481 33.1239 1.84481 22C1.84481 10.8761 10.8761 1.84481 22 1.84481Z" fill="white"/>
<path d="M25.6624 12.831H18.3383V26.5707H25.6624V12.831ZM27.4797 11.9224V27.5069C27.4797 28.0025 27.0667 28.4155 26.5711 28.4155H17.4021C16.9065 28.4155 16.4935 28.0025 16.4935 27.5069V11.9224C16.4935 11.4268 16.9065 11.0138 17.4021 11.0138H26.5711C27.0667 10.9862 27.4797 11.3992 27.4797 11.9224ZM28.4159 33.8673V10.1051C28.4159 10.1327 28.3608 10.1051 28.2782 10.1051H15.7225C15.6399 10.1051 15.5848 10.1327 15.5848 10.1602V33.9224C15.6124 33.9224 15.6399 33.9499 15.695 33.9499H28.2507C28.3608 33.8949 28.4159 33.8673 28.4159 33.8673ZM30.2332 10.0776V33.8949C30.2332 34.9136 29.3521 35.7397 28.2782 35.7397H15.7225C14.6487 35.7397 13.7676 34.9136 13.7676 33.8949V10.0776C13.7676 9.05882 14.6487 8.23279 15.7225 8.23279H28.2782C29.3521 8.26032 30.2332 9.05882 30.2332 10.0776ZM22.909 31.169C22.909 31.6646 22.496 32.0776 22.0004 32.0776C21.5047 32.0776 21.0917 31.6646 21.0917 31.169C21.0917 30.6733 21.5047 30.2603 22.0004 30.2603C22.496 30.2328 22.909 30.6458 22.909 31.169Z" fill="white"/>
</svg>
