<svg width="47" height="48" viewBox="0 0 47 48" fill="none" xmlns="http://www.w3.org/2000/svg">
<path d="M35.9844 22.3987C35.9844 23.8778 35.7552 25.232 35.2969 26.4612C34.8385 27.6903 34.1927 28.6435 33.3594 29.3206C32.526 29.9976 31.5677 30.3362 30.4844 30.3362C29.5885 30.3362 28.8333 30.0653 28.2188 29.5237C27.6042 28.982 27.2396 28.2893 27.125 27.4456H27C26.5833 28.3518 25.9844 29.0601 25.2031 29.5706C24.4323 30.081 23.5156 30.3362 22.4531 30.3362C20.8906 30.3362 19.6667 29.8049 18.7812 28.7424C17.9062 27.6695 17.4688 26.2164 17.4688 24.3831C17.4688 22.2581 18.0833 20.5341 19.3125 19.2112C20.5417 17.8778 22.1562 17.2112 24.1562 17.2112C24.8646 17.2112 25.6667 17.2789 26.5625 17.4143C27.4583 17.5393 28.2656 17.7164 28.9844 17.9456L28.5938 25.2893V25.6331C28.5938 27.4872 29.2865 28.4143 30.6719 28.4143C31.6198 28.4143 32.3906 27.857 32.9844 26.7424C33.5781 25.6174 33.875 24.1591 33.875 22.3674C33.875 20.482 33.4896 18.831 32.7188 17.4143C31.9479 15.9976 30.849 14.9091 29.4219 14.1487C28.0052 13.3778 26.375 12.9924 24.5312 12.9924C22.2083 12.9924 20.1875 13.4768 18.4688 14.4456C16.75 15.4039 15.4375 16.7789 14.5312 18.5706C13.625 20.3518 13.1719 22.4143 13.1719 24.7581C13.1719 27.9351 14.0104 30.3778 15.6875 32.0862C17.3646 33.7945 19.7812 34.6487 22.9375 34.6487C25.125 34.6487 27.3958 34.2008 29.75 33.3049V35.3831C27.75 36.2581 25.4792 36.6956 22.9375 36.6956C19.1562 36.6956 16.2188 35.6591 14.125 33.5862C12.0417 31.5028 11 28.5966 11 24.8674C11 22.1591 11.5573 19.7476 12.6719 17.6331C13.7865 15.5185 15.375 13.8831 17.4375 12.7268C19.5 11.5601 21.8646 10.9768 24.5312 10.9768C26.7708 10.9768 28.7604 11.4508 30.5 12.3987C32.25 13.3362 33.599 14.6747 34.5469 16.4143C35.5052 18.1435 35.9844 20.1383 35.9844 22.3987ZM19.8281 24.4456C19.8281 27.0914 20.8438 28.4143 22.875 28.4143C25.0312 28.4143 26.2031 26.7841 26.3906 23.5237L26.6094 19.4456C25.8594 19.2372 25.0417 19.1331 24.1562 19.1331C22.8021 19.1331 21.7396 19.6018 20.9688 20.5393C20.2083 21.4768 19.8281 22.7789 19.8281 24.4456Z" fill="white"/>
<path d="M23.5 0.789307C10.5294 0.789307 0 11.3187 0 24.2893C0 37.2599 10.5294 47.7893 23.5 47.7893C36.4706 47.7893 47 37.2599 47 24.2893C46.9706 11.3187 36.4706 0.789307 23.5 0.789307ZM23.5 2.75989C35.3824 2.75989 45.0294 12.407 45.0294 24.2893C45.0294 36.1717 35.3824 45.8187 23.5 45.8187C11.6176 45.8187 1.97059 36.1717 1.97059 24.2893C1.97059 12.407 11.6176 2.75989 23.5 2.75989Z" fill="white"/>
</svg>
