<svg width="47" height="48" viewBox="0 0 47 48" fill="none" xmlns="http://www.w3.org/2000/svg">
<path d="M23.5 0.789307C10.5294 0.789307 0 11.3187 0 24.2893C0 37.2599 10.5294 47.7893 23.5 47.7893C36.4706 47.7893 47 37.2599 47 24.2893C46.9706 11.3187 36.4706 0.789307 23.5 0.789307ZM23.5 2.75989C35.3824 2.75989 45.0294 12.407 45.0294 24.2893C45.0294 36.1717 35.3824 45.8187 23.5 45.8187C11.6176 45.8187 1.97059 36.1717 1.97059 24.2893C1.97059 12.407 11.6176 2.75989 23.5 2.75989Z" fill="white"/>
<path d="M24.6268 18.9942C25.6555 19.1945 26.601 19.6967 27.3421 20.4364C28.0832 21.1761 28.5864 22.1197 28.7871 23.1465L24.6268 18.9942ZM24.6268 14.7893C26.7641 15.0263 28.7572 15.9816 30.2787 17.4983C31.8003 19.015 32.7599 21.0031 33 23.136L24.6268 14.7893ZM31.9468 31.5247V34.6783C31.948 34.9711 31.8879 35.2609 31.7704 35.5291C31.6529 35.7974 31.4805 36.0382 31.2644 36.2361C31.0482 36.434 30.793 36.5847 30.5152 36.6785C30.2373 36.7723 29.9429 36.8071 29.6507 36.7808C26.4098 36.4293 23.2966 35.3239 20.5613 33.5535C18.0166 31.9396 15.859 29.7862 14.242 27.2462C12.462 24.5038 11.3543 21.3815 11.0085 18.1322C10.9822 17.8415 11.0168 17.5485 11.1102 17.2719C11.2035 16.9953 11.3536 16.7411 11.5507 16.5255C11.7479 16.3099 11.9878 16.1377 12.2554 16.0198C12.5229 15.9018 12.812 15.8408 13.1045 15.8405H16.2642C16.7753 15.8355 17.2708 16.0162 17.6584 16.3488C18.046 16.6815 18.2991 17.1435 18.3706 17.6486C18.504 18.6579 18.7513 19.6488 19.1079 20.6025C19.2496 20.9788 19.2803 21.3877 19.1963 21.7808C19.1123 22.1739 18.9171 22.5348 18.6339 22.8206L17.2963 24.1557C18.7957 26.7874 20.9789 28.9665 23.6157 30.463L24.9533 29.1279C25.2397 28.8453 25.6012 28.6505 25.9951 28.5667C26.389 28.4828 26.7987 28.5134 27.1756 28.6549C28.1312 29.0108 29.124 29.2576 30.1352 29.3907C30.6468 29.4628 31.1141 29.72 31.4481 30.1134C31.7821 30.5069 31.9596 31.0091 31.9468 31.5247Z" stroke="white" stroke-width="1.6" stroke-linecap="round" stroke-linejoin="round"/>
</svg>
