<svg width="47" height="47" viewBox="0 0 47 47" fill="none" xmlns="http://www.w3.org/2000/svg">
<path d="M23.5 0C10.5294 0 0 10.5294 0 23.5C0 36.4706 10.5294 47 23.5 47C36.4706 47 47 36.4706 47 23.5C46.9706 10.5294 36.4706 0 23.5 0ZM23.5 1.97059C35.3824 1.97059 45.0294 11.6176 45.0294 23.5C45.0294 35.3824 35.3824 45.0294 23.5 45.0294C11.6176 45.0294 1.97059 35.3824 1.97059 23.5C1.97059 11.6176 11.6176 1.97059 23.5 1.97059Z" fill="white"/>
<path d="M24.4705 15.1764C24.4705 15.7058 24.0293 16.147 23.4999 16.147C22.9705 16.147 22.5293 16.5882 22.5293 17.1176C22.5293 17.647 22.0882 18.0882 21.5587 18.0882C21.0293 18.0882 20.5881 17.647 20.5881 17.1176C20.5881 15.4999 21.9117 14.1764 23.5293 14.1764C24.0293 14.2058 24.4705 14.6176 24.4705 15.1764ZM23.4999 21.5294C21.0587 21.5294 19.0881 19.5588 19.0881 17.1176C19.0881 14.6764 21.0587 12.7058 23.4999 12.7058C25.9411 12.7058 27.9117 14.6764 27.9117 17.1176C27.8823 19.5588 25.9117 21.5294 23.4999 21.5294ZM23.4999 10.7646C19.9999 10.7646 17.147 13.6176 17.147 17.1176C17.147 20.2941 19.4999 22.9117 22.5293 23.3823V35.2058C22.5293 35.7352 22.9705 36.1764 23.4999 36.1764C24.0293 36.1764 24.4705 35.7352 24.4705 35.2058V23.4117C27.4999 22.9411 29.8529 20.2941 29.8529 17.1176C29.8529 13.6176 26.9999 10.7646 23.4999 10.7646Z" fill="white"/>
</svg>
